<svg id="svg" version="1.1" width="400" height="400" viewBox="0 0 400 400" xmlns="http://www.w3.org/2000/svg" xmlns:xlink="http://www.w3.org/1999/xlink"><g id="svgg"><path id="path0" d="M0.000 200.000 L 0.000 400.000 200.000 400.000 L 400.000 400.000 400.000 200.000 L 400.000 0.000 200.000 0.000 L 0.000 0.000 0.000 200.000 M115.600 88.000 C 115.600 88.220,115.330 88.400,115.000 88.400 C 114.670 88.400,114.400 88.220,114.400 88.000 C 114.400 87.780,114.670 87.600,115.000 87.600 C 115.330 87.600,115.600 87.780,115.600 88.000 M126.774 90.063 C 130.106 91.367,130.803 92.000,128.907 92.000 C 127.842 92.000,127.854 92.027,129.407 93.066 C 130.283 93.652,131.855 94.839,132.900 95.703 C 134.308 96.868,134.800 97.102,134.800 96.609 C 134.800 96.149,135.076 95.984,135.700 96.072 C 136.195 96.142,136.600 96.470,136.600 96.800 C 136.600 97.179,136.305 97.350,135.800 97.264 C 135.096 97.145,135.133 97.268,136.100 98.286 C 136.705 98.923,137.200 99.660,137.200 99.925 C 137.200 100.189,137.634 100.782,138.164 101.243 C 138.693 101.704,139.609 103.188,140.198 104.540 C 140.788 105.893,141.555 107.630,141.904 108.400 C 142.833 110.451,143.074 121.393,142.257 124.400 C 141.928 125.610,141.819 126.658,142.014 126.728 C 142.422 126.876,142.065 129.213,141.547 129.780 C 141.191 130.170,141.075 129.713,141.145 128.200 C 141.166 127.753,140.953 128.008,140.663 128.776 C 140.378 129.533,139.932 130.223,139.672 130.309 C 139.413 130.396,139.200 130.697,139.200 130.978 C 139.200 131.487,137.796 133.432,135.663 135.880 C 135.050 136.584,133.521 137.957,132.266 138.932 C 130.228 140.515,130.078 140.727,130.858 140.931 C 132.127 141.263,131.136 142.353,129.797 142.097 C 128.801 141.907,128.383 141.200,129.267 141.200 C 129.523 141.200,129.613 141.079,129.465 140.932 C 129.318 140.784,128.793 141.035,128.298 141.489 C 127.804 141.942,126.770 142.445,126.000 142.605 C 125.230 142.765,124.060 143.178,123.400 143.521 C 121.529 144.496,111.198 144.702,108.800 143.812 C 107.810 143.445,106.285 142.967,105.412 142.751 C 104.539 142.534,103.227 141.988,102.498 141.537 C 101.598 140.980,101.209 140.888,101.286 141.249 C 101.477 142.142,99.699 142.124,98.929 141.225 C 98.540 140.771,97.898 140.400,97.503 140.400 C 97.107 140.400,96.579 139.953,96.331 139.408 C 96.082 138.862,95.565 138.316,95.182 138.194 C 94.457 137.964,93.877 136.523,94.260 135.903 C 94.381 135.706,94.761 135.653,95.104 135.785 C 95.447 135.916,94.994 135.343,94.097 134.512 C 93.201 133.680,91.917 131.920,91.242 130.600 C 90.319 128.791,90.015 128.441,90.008 129.180 C 90.002 129.953,89.897 130.057,89.510 129.670 C 89.136 129.296,89.129 129.005,89.481 128.441 C 89.773 127.975,89.803 127.563,89.563 127.323 C 89.354 127.114,89.026 126.146,88.835 125.171 L 88.488 123.400 88.444 124.900 C 88.420 125.725,88.228 126.400,88.019 126.400 C 87.065 126.400,86.505 122.089,87.275 120.674 L 87.751 119.800 87.975 120.717 C 88.099 121.222,88.207 119.562,88.217 117.029 C 88.226 114.496,88.116 112.613,87.972 112.845 C 87.366 113.826,86.893 110.065,87.443 108.633 C 87.880 107.494,88.351 107.967,88.507 109.700 L 88.660 111.400 88.730 109.549 C 88.771 108.459,89.049 107.492,89.405 107.196 C 89.774 106.890,89.874 106.519,89.663 106.247 C 89.072 105.486,88.887 104.145,89.277 103.448 C 89.896 102.343,90.494 103.168,90.216 104.746 C 89.987 106.048,90.089 105.949,91.184 103.800 C 92.373 101.467,93.769 99.360,95.102 97.887 C 95.708 97.217,95.705 97.185,95.063 97.431 C 94.682 97.577,94.105 98.210,93.781 98.837 C 93.204 99.953,91.725 101.059,91.333 100.667 C 90.723 100.057,94.482 95.181,96.081 94.509 C 96.763 94.222,97.519 93.737,97.760 93.431 C 98.476 92.525,100.668 92.235,101.091 92.991 C 101.409 93.559,101.530 93.540,102.186 92.815 C 102.592 92.367,103.175 92.000,103.482 92.000 C 103.789 92.000,104.616 91.694,105.320 91.321 C 106.024 90.947,107.410 90.521,108.400 90.374 L 110.200 90.107 108.000 90.025 C 106.370 89.965,106.007 89.855,106.600 89.600 C 107.589 89.175,109.768 89.102,110.147 89.481 C 110.508 89.842,119.600 89.888,119.600 89.529 C 119.600 88.436,123.325 88.713,126.774 90.063 M122.555 90.422 C 123.630 90.602,124.701 90.941,124.935 91.175 C 125.524 91.764,126.000 91.706,126.000 91.047 C 126.000 90.352,124.722 89.999,122.400 90.053 L 120.600 90.094 122.555 90.422 M132.800 93.839 C 132.800 94.094,133.205 94.582,133.700 94.923 L 134.600 95.543 133.600 95.304 C 133.050 95.172,132.365 94.735,132.077 94.332 C 131.790 93.929,131.295 93.600,130.977 93.600 C 130.660 93.600,130.400 93.346,130.400 93.035 C 130.400 92.573,130.619 92.552,131.600 92.922 C 132.260 93.172,132.800 93.584,132.800 93.839 M98.700 93.887 C 98.095 93.978,97.600 94.305,97.600 94.612 C 97.600 94.920,97.240 95.365,96.800 95.600 C 96.360 95.835,96.000 96.203,96.000 96.417 C 96.000 96.631,96.856 96.204,97.902 95.469 C 98.948 94.734,100.073 94.027,100.402 93.898 C 101.123 93.615,100.518 93.611,98.700 93.887 M138.823 99.300 C 139.820 100.496,139.787 100.882,138.700 100.728 C 138.056 100.636,137.764 100.288,137.673 99.500 C 137.520 98.165,137.830 98.111,138.823 99.300 M141.476 105.500 C 141.375 105.885,141.293 105.570,141.293 104.800 C 141.293 104.030,141.375 103.715,141.476 104.100 C 141.576 104.485,141.576 105.115,141.476 105.500 M95.606 136.719 C 95.599 137.342,97.593 139.169,98.300 139.187 C 98.575 139.194,98.800 139.560,98.800 140.000 C 98.800 140.601,99.067 140.800,99.870 140.800 C 100.841 140.800,100.722 140.631,98.570 138.960 C 97.266 137.949,96.068 136.914,95.906 136.660 C 95.695 136.330,95.611 136.347,95.606 136.719 M116.424 145.243 C 113.908 145.424,110.938 145.419,109.824 145.233 C 108.320 144.981,109.494 144.896,114.400 144.904 L 121.000 144.914 116.424 145.243 M255.400 157.200 C 255.543 157.431,255.172 157.597,254.524 157.594 C 253.651 157.589,253.534 157.501,254.000 157.200 C 254.769 156.703,255.093 156.703,255.400 157.200 M249.000 158.800 C 249.512 159.020,248.360 159.133,245.800 159.115 C 242.897 159.094,242.239 159.008,243.400 158.800 C 245.654 158.396,248.061 158.396,249.000 158.800 M266.600 158.782 C 268.355 159.055,268.086 159.107,264.400 159.207 L 260.200 159.321 264.400 159.606 C 266.755 159.765,269.280 160.178,270.149 160.545 C 272.033 161.342,272.000 161.341,272.000 160.600 C 272.000 160.185,272.417 160.000,273.351 160.000 C 275.419 160.000,276.182 161.187,274.149 161.241 L 272.600 161.282 273.937 161.598 C 274.672 161.772,275.452 162.092,275.670 162.310 C 275.931 162.571,276.439 162.565,277.162 162.292 C 278.383 161.831,280.567 162.206,280.193 162.812 C 280.061 163.025,279.468 163.221,278.876 163.246 C 278.058 163.282,277.988 163.341,278.583 163.492 C 279.014 163.601,279.810 163.982,280.353 164.337 C 281.087 164.818,281.381 164.857,281.503 164.492 C 281.796 163.613,284.000 163.885,284.000 164.800 C 284.000 165.644,283.418 165.876,283.000 165.200 C 282.864 164.980,282.559 164.800,282.322 164.800 C 281.739 164.800,283.447 166.047,285.353 167.013 C 286.207 167.446,287.408 168.295,288.022 168.900 C 288.636 169.505,289.316 170.000,289.534 170.000 C 289.751 170.000,291.655 171.830,293.765 174.066 C 295.874 176.302,297.600 177.932,297.600 177.689 C 297.600 177.446,297.420 177.136,297.200 177.000 C 296.549 176.598,296.744 175.931,297.471 176.071 C 298.230 176.217,299.021 178.520,298.387 178.735 C 298.168 178.810,298.520 179.541,299.169 180.361 C 299.818 181.180,300.584 182.380,300.870 183.026 C 301.763 185.040,302.400 185.458,302.400 184.029 C 302.400 183.203,302.203 182.800,301.800 182.800 C 301.470 182.800,301.198 182.575,301.195 182.300 C 301.192 182.025,301.081 181.395,300.948 180.900 C 300.605 179.620,301.428 179.778,301.989 181.100 C 302.246 181.705,302.882 182.980,303.403 183.933 C 304.370 185.704,304.352 186.800,303.357 186.800 C 302.627 186.800,302.647 187.375,303.400 188.000 C 303.730 188.274,304.006 188.791,304.013 189.149 C 304.024 189.716,304.096 189.707,304.574 189.076 C 305.195 188.257,305.388 188.452,305.785 190.300 C 306.007 191.336,305.935 191.600,305.432 191.600 C 305.057 191.600,304.781 191.234,304.754 190.700 C 304.717 189.993,304.667 189.954,304.520 190.520 C 304.418 190.915,304.650 191.722,305.036 192.311 C 305.422 192.901,305.869 193.927,306.028 194.592 C 306.291 195.689,306.323 195.634,306.371 194.000 C 306.416 192.469,306.491 192.315,306.871 192.970 C 307.439 193.948,307.392 196.034,306.794 196.404 C 306.470 196.604,306.580 197.138,307.169 198.237 C 307.626 199.090,308.000 200.517,308.000 201.407 C 308.000 202.297,308.304 204.010,308.675 205.213 C 309.288 207.196,309.372 211.921,309.582 255.800 L 309.814 304.200 309.940 257.000 C 310.051 215.856,310.138 210.108,310.617 212.200 C 311.068 214.166,311.163 222.972,311.142 260.909 C 311.122 297.251,311.223 307.346,311.613 307.816 C 312.017 308.302,311.975 308.564,311.393 309.208 C 310.324 310.389,310.059 310.194,309.894 308.100 C 309.745 306.204,309.744 306.205,309.672 308.480 C 309.618 310.177,309.421 310.864,308.900 311.168 C 308.254 311.544,308.252 311.577,308.880 311.588 C 309.254 311.595,309.723 311.309,309.922 310.954 C 310.238 310.388,310.309 310.407,310.492 311.110 C 310.980 312.973,311.466 312.937,286.639 312.893 C 263.766 312.853,261.867 312.773,262.754 311.886 C 263.052 311.588,262.914 311.331,262.289 311.020 L 261.400 310.577 261.302 266.988 C 261.248 243.015,261.087 222.950,260.945 222.400 L 260.685 221.400 260.409 222.400 C 260.163 223.293,260.102 223.220,259.834 221.715 C 259.480 219.719,260.038 218.333,260.444 220.200 L 260.705 221.400 260.753 220.280 C 260.779 219.664,260.535 218.648,260.211 218.022 C 259.888 217.396,259.503 216.100,259.357 215.142 C 259.020 212.928,257.217 209.647,257.191 211.200 C 257.175 212.176,257.160 212.181,256.574 211.405 C 256.034 210.691,256.042 210.559,256.654 210.111 C 257.291 209.645,257.292 209.564,256.668 208.875 C 256.300 208.469,256.000 207.935,256.000 207.689 C 256.000 207.442,255.325 206.747,254.500 206.144 C 253.675 205.541,252.588 204.631,252.084 204.123 C 251.580 203.616,251.003 203.200,250.802 203.200 C 250.601 203.200,250.888 203.652,251.440 204.203 C 251.992 204.755,252.333 205.385,252.198 205.603 C 251.794 206.258,251.355 206.058,250.873 205.000 C 250.612 204.428,250.081 204.000,249.632 204.000 C 249.200 204.000,248.736 203.820,248.600 203.600 C 248.464 203.380,248.743 203.200,249.221 203.200 C 250.085 203.200,250.084 203.197,249.144 202.430 C 248.267 201.714,248.192 201.708,248.082 202.357 C 247.976 202.981,247.683 203.017,245.282 202.698 C 241.537 202.201,241.035 201.875,243.600 201.606 L 245.800 201.375 242.302 201.040 C 238.388 200.666,231.051 201.173,234.400 201.586 L 236.200 201.809 234.867 202.101 C 234.131 202.262,233.204 202.216,232.797 201.998 C 232.277 201.720,231.724 201.771,230.929 202.169 C 230.308 202.480,228.549 203.335,227.020 204.067 C 223.122 205.936,216.800 212.790,216.800 215.148 C 216.800 215.472,216.490 216.079,216.111 216.498 C 215.567 217.099,215.546 217.232,216.011 217.130 C 216.460 217.031,216.600 217.419,216.600 218.767 C 216.600 221.033,215.618 221.567,215.560 219.333 L 215.520 217.800 215.152 219.369 C 214.949 220.231,214.563 221.204,214.292 221.530 C 213.911 221.989,213.775 232.029,213.690 266.133 C 213.571 313.401,213.695 310.996,211.363 311.433 C 210.617 311.573,210.098 311.836,210.210 312.016 C 210.667 312.756,208.763 312.826,188.633 312.807 C 167.066 312.787,165.821 312.727,167.088 311.765 C 167.742 311.269,167.713 311.224,166.724 311.213 C 166.132 311.206,165.545 311.034,165.419 310.831 C 164.872 309.946,165.191 164.238,165.742 163.687 C 166.535 162.894,210.336 162.965,211.132 163.761 C 211.542 164.171,211.675 166.087,211.692 171.849 C 211.712 178.377,211.775 179.121,212.158 177.338 L 212.600 175.277 213.301 176.214 C 213.729 176.788,213.846 177.248,213.601 177.400 C 213.380 177.536,213.205 177.952,213.212 178.324 C 213.220 178.807,213.573 178.600,214.446 177.600 C 217.173 174.475,221.066 170.687,222.100 170.150 C 222.705 169.836,223.200 169.411,223.200 169.205 C 223.200 169.000,224.284 168.239,225.610 167.516 C 227.668 166.392,227.988 166.069,227.802 165.300 C 227.630 164.588,227.757 164.400,228.406 164.400 C 229.080 164.400,229.157 164.533,228.835 165.135 C 228.524 165.716,229.056 165.568,231.362 164.435 C 235.578 162.364,237.268 161.652,238.400 161.470 C 239.088 161.359,238.933 161.292,237.900 161.254 C 236.359 161.199,235.909 160.674,237.033 160.243 C 238.155 159.812,239.151 159.983,239.537 160.674 C 239.890 161.304,239.981 161.304,240.932 160.681 C 242.074 159.933,250.109 159.065,256.266 159.024 C 258.283 159.011,260.068 158.865,260.233 158.700 C 260.608 158.326,263.949 158.369,266.600 158.782 M96.203 162.405 C 96.367 162.670,103.637 162.801,117.293 162.785 C 134.022 162.765,138.236 162.865,138.659 163.287 C 139.385 164.013,139.490 309.768,138.766 310.641 C 138.511 310.949,137.649 311.214,136.851 311.231 L 135.400 311.261 137.000 311.753 C 139.827 312.621,137.489 312.742,117.200 312.777 C 106.530 312.796,97.227 312.916,96.526 313.045 C 94.978 313.330,92.032 312.475,92.841 311.975 C 93.136 311.793,93.292 311.589,93.188 311.522 C 93.085 311.455,92.640 311.200,92.200 310.956 C 91.760 310.712,91.413 310.127,91.429 309.656 C 91.444 309.185,91.489 276.233,91.529 236.429 C 91.607 157.219,91.432 162.800,93.829 162.800 C 94.363 162.800,94.800 162.620,94.800 162.400 C 94.800 161.878,95.880 161.882,96.203 162.405 M206.800 162.400 C 207.350 162.576,199.160 162.696,188.600 162.666 L 169.400 162.613 187.200 162.400 C 196.990 162.283,205.180 162.163,205.400 162.134 C 205.620 162.104,206.250 162.224,206.800 162.400 M234.200 162.400 C 234.343 162.631,233.972 162.797,233.324 162.794 C 232.451 162.789,232.334 162.701,232.800 162.400 C 233.569 161.903,233.893 161.903,234.200 162.400 M164.800 166.400 C 164.800 166.814,164.640 167.251,164.445 167.372 C 164.036 167.625,163.649 166.440,163.899 165.698 C 164.139 164.985,164.800 165.500,164.800 166.400 M213.586 166.143 C 213.578 166.394,213.334 167.029,213.043 167.554 L 212.514 168.508 212.257 167.486 C 212.116 166.924,212.105 166.191,212.233 165.857 C 212.492 165.185,213.608 165.421,213.586 166.143 M294.045 171.981 C 295.071 172.877,295.285 173.275,294.934 173.626 C 294.392 174.168,293.600 173.798,293.600 173.003 C 293.600 172.701,293.240 172.340,292.800 172.200 C 292.360 172.060,292.000 171.688,292.000 171.373 C 292.000 170.511,292.547 170.674,294.045 171.981 M296.738 175.379 C 296.827 175.835,296.682 176.028,296.338 175.913 C 296.042 175.814,295.738 175.413,295.662 175.021 C 295.573 174.565,295.718 174.372,296.062 174.487 C 296.358 174.586,296.662 174.987,296.738 175.379 M227.003 205.594 C 226.744 206.015,225.405 205.938,224.944 205.477 C 224.791 205.325,225.247 205.200,225.957 205.200 C 226.703 205.200,227.144 205.366,227.003 205.594 M223.937 208.000 C 223.449 208.660,222.809 209.200,222.515 209.200 C 222.221 209.200,221.809 209.650,221.600 210.200 C 221.391 210.750,221.035 211.200,220.810 211.200 C 220.584 211.200,220.400 211.448,220.400 211.751 C 220.400 212.554,219.459 213.207,218.848 212.829 C 218.453 212.586,218.682 212.145,219.761 211.066 C 220.552 210.274,221.200 209.441,221.200 209.213 C 221.200 208.986,221.384 208.800,221.610 208.800 C 221.835 208.800,222.191 208.350,222.400 207.800 C 222.669 207.094,223.080 206.800,223.802 206.800 L 224.824 206.800 223.937 208.000 M255.200 207.363 C 255.200 207.730,254.920 207.852,254.394 207.714 C 253.164 207.393,253.023 206.800,254.176 206.800 C 254.789 206.800,255.200 207.026,255.200 207.363 M258.841 215.910 C 258.891 217.281,258.812 218.522,258.666 218.668 C 258.520 218.814,258.400 217.613,258.400 216.000 C 258.400 212.472,258.715 212.407,258.841 215.910 M216.300 227.033 C 215.919 227.415,215.155 226.797,215.439 226.338 C 215.607 226.064,215.831 226.071,216.118 226.358 C 216.354 226.594,216.436 226.898,216.300 227.033 M214.298 237.681 C 214.224 239.506,214.162 238.120,214.162 234.600 C 214.161 231.080,214.222 229.586,214.297 231.281 C 214.372 232.976,214.372 235.856,214.298 237.681 M164.794 306.700 C 164.776 307.577,164.012 308.159,164.006 307.300 C 164.003 306.805,164.180 306.400,164.400 306.400 C 164.620 306.400,164.797 306.535,164.794 306.700 M94.038 311.372 C 94.345 311.678,132.740 311.826,132.551 311.520 C 132.455 311.366,123.709 311.227,113.114 311.212 C 102.519 311.196,93.935 311.268,94.038 311.372 " stroke="none" fill="#0b64c3" fill-rule="evenodd"></path><path id="path1" d="M109.400 91.803 C 108.520 92.136,107.010 92.593,106.045 92.818 C 105.080 93.044,103.841 93.582,103.291 94.014 C 102.742 94.446,101.862 94.800,101.336 94.800 C 100.685 94.800,100.259 95.118,100.000 95.800 C 99.791 96.350,99.458 96.800,99.261 96.800 C 98.839 96.800,94.800 100.648,94.800 101.050 C 94.800 101.201,94.350 101.914,93.800 102.636 C 93.250 103.357,92.800 104.114,92.800 104.319 C 92.800 104.524,92.471 105.121,92.068 105.646 C 89.909 108.459,88.498 122.120,90.176 123.973 C 90.514 124.347,90.913 125.271,91.063 126.026 C 91.431 127.883,92.923 130.619,94.757 132.799 C 95.589 133.790,96.486 135.005,96.750 135.500 C 97.013 135.995,97.473 136.400,97.772 136.400 C 98.071 136.400,98.740 136.847,99.258 137.393 C 99.776 137.939,100.350 138.389,100.533 138.393 C 100.716 138.397,101.976 139.055,103.333 139.855 C 109.891 143.722,119.752 143.727,127.374 139.869 C 130.873 138.098,136.400 133.661,136.400 132.624 C 136.400 132.334,136.656 131.885,136.970 131.625 C 137.643 131.066,140.000 126.297,140.000 125.493 C 140.000 125.186,140.374 123.745,140.830 122.290 C 142.157 118.062,141.079 108.697,139.001 106.401 C 138.670 106.036,138.400 105.471,138.400 105.146 C 138.400 104.821,137.950 103.945,137.400 103.200 C 136.850 102.455,136.400 101.680,136.400 101.480 C 136.400 100.872,132.361 97.272,129.700 95.506 C 128.325 94.594,127.200 93.723,127.200 93.569 C 127.200 93.416,126.430 93.175,125.489 93.034 C 124.549 92.893,123.244 92.479,122.589 92.114 C 120.886 91.163,111.661 90.946,109.400 91.803 M248.047 160.666 C 247.083 160.768,245.900 161.109,245.419 161.424 C 244.938 161.739,243.387 162.115,241.972 162.260 C 240.558 162.404,238.773 162.855,238.006 163.261 C 237.239 163.667,236.394 164.000,236.127 164.000 C 235.860 164.000,234.796 164.450,233.762 165.000 C 232.727 165.550,231.666 166.000,231.402 166.000 C 231.139 166.000,230.598 166.360,230.200 166.800 C 229.802 167.240,229.262 167.600,229.000 167.600 C 228.738 167.600,228.198 167.960,227.800 168.400 C 227.402 168.840,226.912 169.200,226.711 169.200 C 226.511 169.200,225.757 169.650,225.036 170.200 C 224.314 170.750,223.583 171.200,223.411 171.200 C 222.603 171.200,214.476 180.036,213.684 181.776 C 213.430 182.333,212.632 183.036,211.911 183.338 C 209.850 184.201,209.619 183.248,209.644 174.000 C 209.667 165.564,209.555 164.816,208.257 164.769 C 196.613 164.341,167.792 164.840,167.543 165.473 C 167.089 166.624,167.136 308.179,167.590 309.374 L 167.980 310.400 189.366 310.400 C 206.036 310.400,210.824 310.290,211.076 309.900 C 211.254 309.625,211.493 290.500,211.606 267.400 C 211.826 222.810,211.869 221.827,213.757 218.400 C 214.060 217.850,214.436 216.770,214.593 216.000 C 214.750 215.230,215.174 214.150,215.534 213.600 C 215.895 213.050,216.372 212.311,216.595 211.957 C 218.361 209.154,219.540 207.696,221.891 205.408 C 223.381 203.958,225.050 202.667,225.600 202.538 C 226.150 202.410,227.050 202.022,227.600 201.676 C 228.490 201.116,230.946 200.312,235.200 199.189 C 237.009 198.711,241.803 198.713,243.600 199.192 C 244.370 199.398,246.170 199.853,247.600 200.204 C 249.030 200.554,250.391 201.090,250.625 201.394 C 250.858 201.698,251.536 202.069,252.130 202.218 C 253.388 202.534,257.908 207.296,258.253 208.668 C 258.381 209.181,258.625 209.600,258.795 209.600 C 258.964 209.600,259.321 210.185,259.588 210.900 C 259.854 211.615,260.403 212.920,260.807 213.800 C 261.211 214.680,261.730 216.750,261.961 218.400 C 262.192 220.050,262.586 222.030,262.836 222.800 C 263.160 223.799,263.334 236.454,263.440 266.929 C 263.522 290.431,263.692 309.826,263.818 310.029 C 263.954 310.249,272.726 310.400,285.395 310.400 L 306.742 310.400 307.522 309.408 C 308.398 308.295,308.923 215.329,308.063 213.713 C 307.854 213.321,307.476 210.709,307.224 207.910 C 306.972 205.110,306.418 201.780,305.992 200.510 C 305.567 199.239,305.215 197.681,305.210 197.047 C 305.204 196.413,304.862 195.333,304.449 194.647 C 304.035 193.961,303.581 192.743,303.438 191.940 C 303.295 191.137,302.931 190.275,302.629 190.024 C 302.326 189.773,301.957 189.080,301.809 188.484 C 301.564 187.502,299.951 184.536,298.400 182.217 C 298.070 181.723,297.452 180.797,297.027 180.160 C 296.137 178.824,295.816 178.465,291.852 174.373 C 290.239 172.708,288.373 171.120,287.706 170.844 C 287.038 170.567,285.819 169.724,284.996 168.971 C 284.173 168.217,283.333 167.600,283.129 167.600 C 282.924 167.600,282.095 167.150,281.286 166.600 C 280.477 166.050,279.532 165.600,279.187 165.600 C 278.842 165.600,278.376 165.416,278.151 165.191 C 277.483 164.523,271.176 162.424,269.008 162.147 C 267.903 162.006,266.496 161.636,265.880 161.325 C 264.729 160.743,251.826 160.266,248.047 160.666 M94.914 164.322 C 93.367 164.435,93.209 164.550,92.998 165.722 C 92.634 167.751,92.963 309.096,93.333 309.467 C 94.011 310.145,135.499 310.073,136.817 309.391 L 138.000 308.779 138.000 237.039 C 138.000 172.540,137.937 165.246,137.376 164.780 C 136.801 164.303,100.569 163.912,94.914 164.322 " stroke="none" fill="#f9fbfb" fill-rule="evenodd"></path><path id="path2" d="M109.600 90.184 C 107.950 90.444,106.024 90.959,105.320 91.328 C 104.616 91.698,103.789 92.000,103.482 92.000 C 103.175 92.000,102.602 92.355,102.209 92.790 C 101.816 93.224,101.141 93.692,100.710 93.829 C 97.550 94.831,92.987 99.707,90.932 104.278 C 90.357 105.555,89.666 106.870,89.396 107.200 C 88.485 108.312,87.861 117.331,88.386 121.800 C 88.939 126.508,91.354 131.964,93.962 134.400 C 94.786 135.170,95.627 136.095,95.831 136.456 C 96.777 138.134,102.844 142.111,105.448 142.759 C 106.301 142.971,107.810 143.445,108.800 143.812 C 111.222 144.711,121.537 144.495,123.414 143.507 C 124.081 143.156,125.285 142.745,126.088 142.595 C 126.891 142.444,127.857 141.979,128.236 141.560 C 128.614 141.142,129.135 140.800,129.392 140.800 C 130.029 140.800,134.286 137.460,135.663 135.880 C 137.785 133.445,139.200 131.488,139.200 130.988 C 139.200 130.712,139.447 130.391,139.749 130.275 C 140.050 130.159,140.423 129.561,140.578 128.946 C 140.732 128.331,141.250 127.012,141.729 126.014 C 142.897 123.581,143.044 110.757,141.931 108.400 C 141.567 107.630,140.775 105.865,140.170 104.477 C 139.565 103.090,138.748 101.729,138.354 101.453 C 137.960 101.177,137.462 100.489,137.247 99.925 C 136.652 98.359,128.602 92.003,127.207 91.998 C 126.873 91.996,126.060 91.707,125.400 91.355 C 122.675 89.903,114.999 89.333,109.600 90.184 M120.569 90.816 C 122.092 91.036,123.532 91.375,123.769 91.569 C 124.006 91.763,124.944 92.121,125.853 92.364 C 128.175 92.984,136.150 98.848,136.697 100.337 C 136.831 100.702,137.338 101.540,137.822 102.200 C 150.091 118.907,136.800 143.600,115.538 143.600 C 90.704 143.600,79.060 113.198,97.614 96.800 C 98.983 95.590,100.575 94.438,101.152 94.240 C 101.728 94.042,102.629 93.547,103.154 93.140 C 103.679 92.733,104.363 92.400,104.674 92.400 C 104.985 92.400,105.776 92.123,106.430 91.784 C 108.813 90.552,115.551 90.091,120.569 90.816 M253.177 158.947 C 253.055 159.074,250.530 159.362,247.565 159.587 C 243.573 159.890,241.768 160.204,240.603 160.798 C 239.738 161.239,238.602 161.600,238.077 161.600 C 237.553 161.600,236.646 161.853,236.062 162.163 C 235.478 162.473,233.920 163.222,232.600 163.829 C 228.971 165.496,223.200 168.803,223.200 169.215 C 223.200 169.416,222.705 169.843,222.100 170.165 C 220.109 171.225,214.058 177.620,212.792 180.000 L 212.261 181.000 211.959 179.877 C 211.793 179.259,211.659 175.500,211.662 171.524 C 211.665 166.011,211.539 164.168,211.131 163.759 C 210.336 162.965,166.534 162.895,165.742 163.687 C 165.042 164.387,164.917 310.277,165.616 310.976 C 166.280 311.641,211.090 311.741,212.400 311.081 L 213.400 310.577 213.600 266.350 C 213.754 232.350,213.913 221.987,214.289 221.534 C 214.557 221.210,214.975 220.024,215.216 218.899 C 215.458 217.773,215.913 216.638,216.228 216.377 C 216.542 216.116,216.800 215.600,216.800 215.231 C 216.800 214.197,219.668 210.049,222.077 207.600 C 224.089 205.553,225.335 204.800,231.245 202.056 C 234.650 200.474,246.985 200.558,248.771 202.174 C 249.146 202.513,250.025 202.990,250.726 203.234 C 251.427 203.478,252.000 203.832,252.000 204.020 C 252.000 204.208,252.820 204.926,253.823 205.616 C 254.826 206.306,255.817 207.260,256.025 207.735 C 256.233 208.211,257.032 209.740,257.801 211.134 C 258.571 212.527,259.208 214.057,259.218 214.534 C 259.227 215.010,259.515 216.120,259.856 217.000 C 261.058 220.095,261.157 223.776,261.206 266.874 C 261.250 306.028,261.317 310.399,261.888 310.874 C 262.714 311.559,307.577 311.854,308.833 311.182 C 309.969 310.574,309.819 208.905,308.677 205.213 C 308.305 204.010,308.000 202.297,308.000 201.407 C 308.000 200.517,307.653 199.140,307.228 198.348 C 306.804 197.556,306.332 196.209,306.180 195.354 C 306.027 194.499,305.588 193.260,305.204 192.600 C 304.819 191.940,304.389 190.782,304.248 190.026 C 304.106 189.271,303.745 188.371,303.446 188.026 C 303.146 187.682,302.684 186.725,302.420 185.900 C 302.155 185.075,301.791 184.400,301.612 184.400 C 301.433 184.400,301.177 183.961,301.042 183.424 C 300.580 181.585,290.620 170.000,289.500 170.000 C 289.301 170.000,288.642 169.505,288.035 168.900 C 287.429 168.295,286.137 167.378,285.166 166.862 C 284.195 166.347,282.418 165.402,281.217 164.762 C 280.017 164.123,278.829 163.600,278.577 163.600 C 278.325 163.600,277.273 163.150,276.238 162.600 C 275.204 162.050,274.093 161.600,273.769 161.600 C 273.445 161.600,272.150 161.228,270.890 160.774 C 269.509 160.275,266.775 159.801,264.000 159.577 C 261.470 159.374,258.050 159.097,256.400 158.962 C 254.750 158.827,253.300 158.820,253.177 158.947 M265.400 160.401 C 269.242 161.168,272.811 162.149,275.600 163.206 C 280.969 165.241,281.148 165.341,288.952 170.649 C 290.468 171.680,296.468 178.011,298.400 180.618 C 299.874 182.606,300.748 184.087,301.815 186.400 C 302.170 187.170,302.807 188.532,303.230 189.426 C 303.654 190.321,304.000 191.273,304.000 191.542 C 304.000 191.812,304.336 192.700,304.746 193.516 C 305.156 194.332,305.623 195.720,305.783 196.600 C 305.943 197.480,306.315 198.650,306.611 199.200 C 306.907 199.750,307.346 201.820,307.586 203.800 C 307.826 205.780,308.289 209.110,308.614 211.200 C 309.262 215.368,309.482 307.087,308.849 309.452 L 308.543 310.600 286.371 310.711 C 274.177 310.771,263.801 310.725,263.313 310.606 L 262.426 310.391 262.407 268.613 C 262.397 245.636,262.308 226.602,262.210 226.318 C 262.111 226.033,261.843 224.047,261.614 221.905 C 260.097 207.720,254.384 201.646,240.789 199.761 C 236.703 199.194,226.382 202.402,223.476 205.141 C 218.476 209.854,216.421 212.983,214.539 218.746 C 212.822 224.004,212.807 224.432,212.795 267.997 C 212.783 305.960,212.718 310.346,212.158 310.561 C 211.340 310.875,167.455 310.873,166.637 310.559 C 166.068 310.340,166.007 303.329,166.002 237.349 L 165.997 164.381 167.051 163.980 C 168.727 163.343,209.818 163.657,210.472 164.312 C 210.854 164.694,210.986 166.914,210.992 173.067 C 210.999 180.661,211.058 181.346,211.741 181.755 C 212.338 182.113,212.572 182.054,212.941 181.452 C 216.315 175.952,220.941 171.495,227.400 167.524 C 230.955 165.338,237.918 162.000,238.923 162.000 C 239.238 162.000,240.642 161.634,242.042 161.187 C 246.495 159.764,259.944 159.311,265.400 160.401 M92.400 163.192 C 91.656 163.662,91.071 309.802,91.809 310.695 C 92.470 311.494,137.849 311.522,138.647 310.725 C 139.402 309.969,139.499 164.242,138.744 163.332 C 138.205 162.683,93.421 162.546,92.400 163.192 M138.416 164.642 C 139.140 166.548,138.731 309.946,138.000 310.408 C 137.343 310.824,94.100 310.967,93.033 310.557 C 92.372 310.304,92.008 164.525,92.667 163.867 C 92.813 163.720,103.078 163.600,115.477 163.600 L 138.020 163.600 138.416 164.642 " stroke="none" fill="#6899cc" fill-rule="evenodd"></path><path id="path3" d="M109.910 90.833 C 108.651 91.018,107.085 91.446,106.430 91.784 C 105.776 92.123,104.985 92.400,104.674 92.400 C 104.363 92.400,103.679 92.733,103.154 93.140 C 102.629 93.547,101.728 94.042,101.152 94.240 C 100.575 94.438,98.983 95.590,97.614 96.800 C 88.688 104.689,86.075 118.166,91.374 128.987 C 97.995 142.506,114.038 147.509,128.337 140.516 C 141.654 134.003,146.576 114.120,137.822 102.200 C 137.338 101.540,136.831 100.702,136.697 100.337 C 136.150 98.848,128.175 92.984,125.853 92.364 C 124.944 92.121,124.006 91.763,123.769 91.569 C 122.571 90.589,114.500 90.161,109.910 90.833 M122.589 92.114 C 123.244 92.479,124.549 92.893,125.489 93.034 C 126.430 93.175,127.200 93.416,127.200 93.569 C 127.200 93.723,128.325 94.594,129.700 95.506 C 132.361 97.272,136.400 100.872,136.400 101.480 C 136.400 101.680,136.850 102.455,137.400 103.200 C 137.950 103.945,138.400 104.821,138.400 105.146 C 138.400 105.471,138.670 106.036,139.001 106.401 C 141.079 108.697,142.157 118.062,140.830 122.290 C 140.374 123.745,140.000 125.186,140.000 125.493 C 140.000 126.297,137.643 131.066,136.970 131.625 C 136.656 131.885,136.400 132.334,136.400 132.624 C 136.400 133.661,130.873 138.098,127.374 139.869 C 119.752 143.727,109.891 143.722,103.333 139.855 C 101.976 139.055,100.716 138.397,100.533 138.393 C 100.350 138.389,99.776 137.939,99.258 137.393 C 98.740 136.847,98.071 136.400,97.772 136.400 C 97.473 136.400,97.013 135.995,96.750 135.500 C 96.486 135.005,95.589 133.790,94.757 132.799 C 92.923 130.619,91.431 127.883,91.063 126.026 C 90.913 125.271,90.514 124.347,90.176 123.973 C 88.498 122.120,89.909 108.459,92.068 105.646 C 92.471 105.121,92.800 104.524,92.800 104.319 C 92.800 104.114,93.250 103.357,93.800 102.636 C 94.350 101.914,94.800 101.201,94.800 101.050 C 94.800 100.648,98.839 96.800,99.261 96.800 C 99.458 96.800,99.791 96.350,100.000 95.800 C 100.259 95.118,100.685 94.800,101.336 94.800 C 101.862 94.800,102.742 94.446,103.291 94.014 C 103.841 93.582,105.080 93.044,106.045 92.818 C 107.010 92.593,108.520 92.136,109.400 91.803 C 111.661 90.946,120.886 91.163,122.589 92.114 M248.594 160.022 C 246.391 160.215,243.442 160.739,242.042 161.187 C 240.642 161.634,239.238 162.000,238.923 162.000 C 237.918 162.000,230.955 165.338,227.400 167.524 C 220.941 171.495,216.315 175.952,212.941 181.452 C 212.572 182.054,212.338 182.113,211.741 181.755 C 211.058 181.346,210.999 180.661,210.992 173.067 C 210.986 166.914,210.854 164.694,210.472 164.312 C 209.818 163.657,168.727 163.343,167.051 163.980 L 165.997 164.381 166.002 237.349 C 166.007 303.329,166.068 310.340,166.637 310.559 C 167.455 310.873,211.340 310.875,212.158 310.561 C 212.718 310.346,212.783 305.960,212.795 267.997 C 212.807 224.432,212.822 224.004,214.539 218.746 C 216.421 212.983,218.476 209.854,223.476 205.141 C 226.382 202.402,236.703 199.194,240.789 199.761 C 254.384 201.646,260.097 207.720,261.614 221.905 C 261.843 224.047,262.111 226.033,262.210 226.318 C 262.308 226.602,262.397 245.636,262.407 268.613 L 262.426 310.391 263.313 310.606 C 263.801 310.725,274.177 310.771,286.371 310.711 L 308.543 310.600 308.849 309.452 C 309.482 307.087,309.262 215.368,308.614 211.200 C 308.289 209.110,307.826 205.780,307.586 203.800 C 307.346 201.820,306.907 199.750,306.611 199.200 C 306.315 198.650,305.943 197.480,305.783 196.600 C 305.623 195.720,305.156 194.332,304.746 193.516 C 304.336 192.700,304.000 191.812,304.000 191.542 C 304.000 191.273,303.654 190.321,303.230 189.426 C 302.807 188.532,302.170 187.170,301.815 186.400 C 300.748 184.087,299.874 182.606,298.400 180.618 C 296.468 178.011,290.468 171.680,288.952 170.649 C 281.148 165.341,280.969 165.241,275.600 163.206 C 272.811 162.149,269.242 161.168,265.400 160.401 C 262.746 159.871,252.865 159.648,248.594 160.022 M265.880 161.325 C 266.496 161.636,267.903 162.006,269.008 162.147 C 271.176 162.424,277.483 164.523,278.151 165.191 C 278.376 165.416,278.842 165.600,279.187 165.600 C 279.532 165.600,280.477 166.050,281.286 166.600 C 282.095 167.150,282.924 167.600,283.129 167.600 C 283.333 167.600,284.173 168.217,284.996 168.971 C 285.819 169.724,287.038 170.567,287.706 170.844 C 288.373 171.120,290.239 172.708,291.852 174.373 C 295.816 178.465,296.137 178.824,297.027 180.160 C 297.452 180.797,298.070 181.723,298.400 182.217 C 299.951 184.536,301.564 187.502,301.809 188.484 C 301.957 189.080,302.326 189.773,302.629 190.024 C 302.931 190.275,303.295 191.137,303.438 191.940 C 303.581 192.743,304.035 193.961,304.449 194.647 C 304.862 195.333,305.204 196.413,305.210 197.047 C 305.215 197.681,305.567 199.239,305.992 200.510 C 306.418 201.780,306.972 205.110,307.224 207.910 C 307.476 210.709,307.854 213.321,308.063 213.713 C 308.923 215.329,308.398 308.295,307.522 309.408 L 306.742 310.400 285.395 310.400 C 272.726 310.400,263.954 310.249,263.818 310.029 C 263.692 309.826,263.522 290.431,263.440 266.929 C 263.334 236.454,263.160 223.799,262.836 222.800 C 262.586 222.030,262.192 220.050,261.961 218.400 C 261.730 216.750,261.211 214.680,260.807 213.800 C 260.403 212.920,259.854 211.615,259.588 210.900 C 259.321 210.185,258.964 209.600,258.795 209.600 C 258.625 209.600,258.381 209.181,258.253 208.668 C 257.908 207.296,253.388 202.534,252.130 202.218 C 251.536 202.069,250.858 201.698,250.625 201.394 C 250.391 201.090,249.030 200.554,247.600 200.204 C 246.170 199.853,244.370 199.398,243.600 199.192 C 241.803 198.713,237.009 198.711,235.200 199.189 C 230.946 200.312,228.490 201.116,227.600 201.676 C 227.050 202.022,226.150 202.410,225.600 202.538 C 225.050 202.667,223.381 203.958,221.891 205.408 C 219.540 207.696,218.361 209.154,216.595 211.957 C 216.372 212.311,215.895 213.050,215.534 213.600 C 215.174 214.150,214.750 215.230,214.593 216.000 C 214.436 216.770,214.060 217.850,213.757 218.400 C 211.869 221.827,211.826 222.810,211.606 267.400 C 211.493 290.500,211.254 309.625,211.076 309.900 C 210.824 310.290,206.036 310.400,189.366 310.400 L 167.980 310.400 167.590 309.374 C 167.136 308.179,167.089 166.624,167.543 165.473 C 167.792 164.840,196.613 164.341,208.257 164.769 C 209.555 164.816,209.667 165.564,209.644 174.000 C 209.619 183.248,209.850 184.201,211.911 183.338 C 212.632 183.036,213.430 182.333,213.684 181.776 C 214.476 180.036,222.603 171.200,223.411 171.200 C 223.583 171.200,224.314 170.750,225.036 170.200 C 225.757 169.650,226.511 169.200,226.711 169.200 C 226.912 169.200,227.402 168.840,227.800 168.400 C 228.198 167.960,228.738 167.600,229.000 167.600 C 229.262 167.600,229.802 167.240,230.200 166.800 C 230.598 166.360,231.139 166.000,231.402 166.000 C 231.666 166.000,232.727 165.550,233.762 165.000 C 234.796 164.450,235.860 164.000,236.127 164.000 C 236.394 164.000,237.239 163.667,238.006 163.261 C 238.773 162.855,240.558 162.404,241.972 162.260 C 243.387 162.115,244.938 161.739,245.419 161.424 C 247.162 160.282,263.659 160.202,265.880 161.325 M92.667 163.867 C 92.008 164.525,92.372 310.304,93.033 310.557 C 94.100 310.967,137.343 310.824,138.000 310.408 C 138.731 309.946,139.140 166.548,138.416 164.642 L 138.020 163.600 115.477 163.600 C 103.078 163.600,92.813 163.720,92.667 163.867 M137.376 164.780 C 137.937 165.246,138.000 172.540,138.000 237.039 L 138.000 308.779 136.817 309.391 C 135.499 310.073,94.011 310.145,93.333 309.467 C 92.963 309.096,92.634 167.751,92.998 165.722 C 93.290 164.096,91.760 164.192,116.676 164.231 C 132.479 164.256,136.885 164.373,137.376 164.780 " stroke="none" fill="#94bce4" fill-rule="evenodd"></path><path id="path4" d="M114.400 88.000 C 114.400 88.220,114.670 88.400,115.000 88.400 C 115.330 88.400,115.600 88.220,115.600 88.000 C 115.600 87.780,115.330 87.600,115.000 87.600 C 114.670 87.600,114.400 87.780,114.400 88.000 M120.300 89.076 C 118.798 89.468,119.714 90.000,121.900 90.005 C 124.704 90.012,126.000 90.328,126.000 91.004 C 126.000 91.657,126.906 92.000,128.633 92.000 C 130.802 92.000,130.247 91.422,126.774 90.063 C 123.778 88.890,122.031 88.623,120.300 89.076 M106.600 89.600 C 106.026 89.847,106.456 89.952,108.124 89.972 C 109.577 89.989,110.355 89.850,110.200 89.600 C 109.903 89.120,107.717 89.120,106.600 89.600 M99.000 92.676 C 98.560 92.781,98.002 93.120,97.760 93.428 C 97.519 93.736,96.763 94.222,96.081 94.509 C 94.482 95.181,90.723 100.057,91.333 100.667 C 91.728 101.061,93.206 99.949,93.791 98.816 C 94.121 98.179,94.753 97.542,95.196 97.401 C 95.638 97.261,96.000 96.895,96.000 96.587 C 96.000 96.280,96.360 95.835,96.800 95.600 C 97.240 95.365,97.600 94.929,97.600 94.631 C 97.600 94.296,98.293 93.987,99.424 93.817 C 100.558 93.647,101.188 93.365,101.091 93.072 C 100.913 92.536,100.170 92.396,99.000 92.676 M130.400 93.035 C 130.400 93.346,130.660 93.600,130.977 93.600 C 131.295 93.600,131.790 93.929,132.077 94.332 C 132.365 94.735,133.050 95.172,133.600 95.304 L 134.600 95.543 133.700 94.923 C 133.205 94.582,132.800 94.094,132.800 93.839 C 132.800 93.584,132.260 93.172,131.600 92.922 C 130.619 92.552,130.400 92.573,130.400 93.035 M134.800 96.553 C 134.800 97.198,136.293 97.697,136.623 97.162 C 136.972 96.598,136.433 96.000,135.576 96.000 C 135.149 96.000,134.800 96.249,134.800 96.553 M137.673 99.500 C 137.764 100.288,138.056 100.636,138.700 100.728 C 139.787 100.882,139.820 100.496,138.823 99.300 C 137.830 98.111,137.520 98.165,137.673 99.500 M89.304 103.400 C 88.901 104.120,89.090 105.885,89.604 106.202 C 89.774 106.307,90.035 105.741,90.184 104.944 C 90.489 103.321,89.913 102.311,89.304 103.400 M141.293 104.800 C 141.293 105.570,141.375 105.885,141.476 105.500 C 141.576 105.115,141.576 104.485,141.476 104.100 C 141.375 103.715,141.293 104.030,141.293 104.800 M87.443 108.633 C 87.090 109.553,87.157 112.113,87.550 112.734 C 88.048 113.519,88.400 112.373,88.400 109.967 C 88.400 108.040,87.925 107.377,87.443 108.633 M87.275 120.674 C 86.505 122.089,87.065 126.400,88.019 126.400 C 88.453 126.400,88.465 122.310,88.036 120.800 L 87.751 119.800 87.275 120.674 M141.120 127.833 C 140.946 129.327,141.411 130.634,141.745 129.589 C 142.333 127.748,142.361 126.871,141.838 126.670 C 141.444 126.519,141.234 126.860,141.120 127.833 M89.334 128.627 C 89.202 128.972,89.298 129.458,89.547 129.707 C 89.884 130.044,90.000 129.884,90.000 129.080 C 90.000 127.877,89.701 127.673,89.334 128.627 M94.256 135.909 C 93.876 136.524,94.460 137.965,95.182 138.194 C 95.565 138.316,96.082 138.862,96.331 139.408 C 96.579 139.953,97.107 140.400,97.503 140.400 C 97.898 140.400,98.540 140.771,98.929 141.225 C 99.318 141.679,99.995 141.994,100.434 141.925 C 101.732 141.721,101.506 141.010,100.100 140.875 C 99.124 140.781,98.800 140.556,98.800 139.975 C 98.800 139.549,98.575 139.194,98.300 139.187 C 97.560 139.169,95.700 137.416,95.540 136.586 C 95.384 135.784,94.592 135.366,94.256 135.909 M129.300 141.065 C 128.486 141.393,128.727 141.893,129.797 142.097 C 130.783 142.286,131.840 141.573,131.330 141.063 C 131.031 140.764,130.043 140.765,129.300 141.065 M109.824 145.233 C 110.938 145.419,113.908 145.424,116.424 145.243 L 121.000 144.914 114.400 144.904 C 109.494 144.896,108.320 144.981,109.824 145.233 M254.000 157.200 C 253.534 157.501,253.651 157.589,254.524 157.594 C 255.172 157.597,255.543 157.431,255.400 157.200 C 255.093 156.703,254.769 156.703,254.000 157.200 M243.400 158.800 C 242.239 159.008,242.897 159.094,245.800 159.115 C 248.360 159.133,249.512 159.020,249.000 158.800 C 248.061 158.396,245.654 158.396,243.400 158.800 M260.200 158.800 C 260.040 159.058,261.483 159.181,264.276 159.147 C 267.909 159.102,268.280 159.043,266.600 158.782 C 263.694 158.329,260.485 158.338,260.200 158.800 M236.900 160.256 C 235.857 160.695,236.463 161.200,238.033 161.200 C 239.161 161.200,239.616 161.045,239.502 160.700 C 239.329 160.172,237.743 159.901,236.900 160.256 M272.000 160.600 C 272.000 161.047,272.472 161.200,273.849 161.200 C 275.447 161.200,275.630 161.119,275.200 160.600 C 274.926 160.270,274.094 160.000,273.351 160.000 C 272.417 160.000,272.000 160.185,272.000 160.600 M94.800 162.400 C 94.800 162.620,95.171 162.800,95.624 162.800 C 96.077 162.800,96.336 162.620,96.200 162.400 C 96.064 162.180,95.693 162.000,95.376 162.000 C 95.059 162.000,94.800 162.180,94.800 162.400 M187.200 162.400 L 169.400 162.613 188.600 162.666 C 199.160 162.696,207.350 162.576,206.800 162.400 C 206.250 162.224,205.620 162.104,205.400 162.134 C 205.180 162.163,196.990 162.283,187.200 162.400 M232.800 162.400 C 232.334 162.701,232.451 162.789,233.324 162.794 C 233.972 162.797,234.343 162.631,234.200 162.400 C 233.893 161.903,233.569 161.903,232.800 162.400 M276.828 162.374 C 276.404 162.642,276.637 162.808,277.725 163.012 C 279.517 163.348,280.905 162.964,279.989 162.385 C 279.239 161.910,277.570 161.905,276.828 162.374 M281.600 164.353 C 281.600 164.548,281.915 164.818,282.300 164.954 C 282.685 165.089,283.225 165.305,283.500 165.434 C 283.815 165.580,284.000 165.358,284.000 164.833 C 284.000 164.174,283.749 164.000,282.800 164.000 C 282.140 164.000,281.600 164.159,281.600 164.353 M227.606 164.700 C 227.627 165.724,228.339 166.062,228.771 165.254 C 229.168 164.512,229.121 164.400,228.414 164.400 C 227.966 164.400,227.603 164.535,227.606 164.700 M163.899 165.698 C 163.649 166.440,164.036 167.625,164.445 167.372 C 164.910 167.085,164.902 165.710,164.434 165.421 C 164.233 165.297,163.992 165.421,163.899 165.698 M212.233 165.857 C 212.105 166.191,212.116 166.924,212.257 167.486 L 212.514 168.508 213.043 167.554 C 213.334 167.029,213.578 166.394,213.586 166.143 C 213.608 165.421,212.492 165.185,212.233 165.857 M292.000 171.373 C 292.000 171.688,292.360 172.060,292.800 172.200 C 293.240 172.340,293.600 172.701,293.600 173.003 C 293.600 173.798,294.392 174.168,294.934 173.626 C 295.285 173.275,295.071 172.877,294.045 171.981 C 292.547 170.674,292.000 170.511,292.000 171.373 M295.607 174.900 C 295.611 175.175,296.061 175.824,296.607 176.342 C 297.153 176.860,297.600 177.625,297.600 178.042 C 297.600 178.459,297.873 178.800,298.208 178.800 C 298.668 178.800,298.751 178.533,298.552 177.700 C 298.201 176.231,298.048 176.000,297.423 176.000 C 297.132 176.000,296.799 175.640,296.684 175.200 C 296.456 174.329,295.596 174.089,295.607 174.900 M212.254 176.717 C 211.675 180.218,212.335 182.279,213.015 179.095 C 213.168 178.383,213.436 177.620,213.612 177.400 C 213.787 177.180,213.609 176.603,213.215 176.117 L 212.499 175.234 212.254 176.717 M300.948 180.900 C 301.081 181.395,301.192 182.025,301.195 182.300 C 301.198 182.575,301.470 182.800,301.800 182.800 C 302.216 182.800,302.400 183.219,302.400 184.167 C 302.400 185.897,302.743 186.800,303.400 186.800 C 304.354 186.800,304.355 185.677,303.403 183.933 C 302.882 182.980,302.246 181.705,301.989 181.100 C 301.428 179.778,300.605 179.620,300.948 180.900 M304.694 188.898 C 304.340 189.822,304.856 191.600,305.478 191.600 C 305.928 191.600,306.000 191.299,305.790 190.300 C 305.462 188.746,304.986 188.137,304.694 188.898 M306.432 194.300 C 306.415 195.455,306.559 196.400,306.753 196.400 C 307.364 196.400,307.495 194.531,306.969 193.341 C 306.480 192.235,306.464 192.264,306.432 194.300 M243.600 201.586 C 241.038 201.878,241.529 202.200,245.300 202.701 C 247.778 203.030,248.000 202.999,248.000 202.330 C 248.000 201.928,247.745 201.600,247.433 201.600 C 247.121 201.600,246.626 201.540,246.333 201.468 C 246.040 201.395,244.810 201.448,243.600 201.586 M232.890 202.026 C 233.337 202.287,234.041 202.295,234.890 202.050 C 236.152 201.686,236.127 201.671,234.200 201.648 C 232.677 201.630,232.364 201.720,232.890 202.026 M248.600 203.600 C 248.736 203.820,249.200 204.000,249.632 204.000 C 250.081 204.000,250.612 204.428,250.873 205.000 C 251.355 206.058,251.794 206.258,252.198 205.603 C 252.593 204.965,250.535 203.200,249.395 203.200 C 248.802 203.200,248.459 203.372,248.600 203.600 M224.944 205.477 C 225.405 205.938,226.744 206.015,227.003 205.594 C 227.144 205.366,226.703 205.200,225.957 205.200 C 225.247 205.200,224.791 205.325,224.944 205.477 M222.400 207.800 C 222.191 208.350,221.835 208.800,221.610 208.800 C 221.384 208.800,221.200 208.986,221.200 209.213 C 221.200 209.441,220.552 210.274,219.761 211.066 C 218.682 212.145,218.453 212.586,218.848 212.829 C 219.459 213.207,220.400 212.554,220.400 211.751 C 220.400 211.448,220.584 211.200,220.810 211.200 C 221.035 211.200,221.391 210.750,221.600 210.200 C 221.809 209.650,222.221 209.200,222.515 209.200 C 222.809 209.200,223.449 208.660,223.937 208.000 L 224.824 206.800 223.802 206.800 C 223.080 206.800,222.669 207.094,222.400 207.800 M253.370 207.152 C 253.770 207.798,255.200 207.963,255.200 207.363 C 255.200 207.026,254.789 206.800,254.176 206.800 C 253.613 206.800,253.251 206.958,253.370 207.152 M256.236 210.341 C 256.120 210.529,256.284 211.024,256.600 211.441 C 257.144 212.160,257.175 212.142,257.187 211.100 C 257.199 210.044,256.677 209.628,256.236 210.341 M309.947 257.000 C 309.831 302.475,309.871 309.592,310.248 309.978 C 310.769 310.510,312.111 308.416,311.625 307.830 C 311.219 307.342,311.121 297.830,311.142 260.909 C 311.163 222.972,311.068 214.166,310.617 212.200 C 310.138 210.108,310.052 215.865,309.947 257.000 M258.400 216.000 C 258.400 217.613,258.520 218.814,258.666 218.668 C 258.950 218.383,258.870 213.536,258.576 213.242 C 258.479 213.146,258.400 214.387,258.400 216.000 M215.873 217.060 C 215.723 217.210,215.600 218.128,215.600 219.100 C 215.600 221.322,216.540 221.252,216.727 219.016 C 216.852 217.524,216.414 216.520,215.873 217.060 M259.822 219.695 C 259.655 220.077,259.683 221.067,259.884 221.895 C 260.213 223.248,260.269 223.299,260.439 222.400 C 260.717 220.940,260.223 218.778,259.822 219.695 M215.439 226.338 C 215.300 226.561,215.382 226.865,215.620 227.012 C 216.235 227.393,216.632 226.872,216.118 226.358 C 215.831 226.071,215.607 226.064,215.439 226.338 M214.162 234.600 C 214.162 238.120,214.224 239.506,214.298 237.681 C 214.372 235.856,214.372 232.976,214.297 231.281 C 214.222 229.586,214.161 231.080,214.162 234.600 M164.006 307.300 C 164.011 308.028,164.086 308.085,164.400 307.600 C 164.901 306.824,164.901 306.400,164.400 306.400 C 164.180 306.400,164.003 306.805,164.006 307.300 M309.879 310.937 C 309.638 311.565,307.878 311.614,286.347 311.590 C 264.821 311.566,261.361 311.711,262.756 312.573 C 263.093 312.781,301.768 313.006,308.657 312.840 C 310.403 312.798,310.872 312.314,310.415 311.029 C 310.167 310.334,310.114 310.325,309.879 310.937 M92.852 311.954 C 92.040 312.476,94.940 313.337,96.526 313.044 C 97.227 312.915,106.620 312.786,117.400 312.758 C 135.624 312.710,140.243 312.514,137.585 311.903 C 135.947 311.526,93.442 311.575,92.852 311.954 M166.866 311.950 C 165.704 312.687,168.256 312.788,188.633 312.807 C 209.015 312.826,210.671 312.762,210.183 311.972 C 209.892 311.502,167.608 311.480,166.866 311.950 " stroke="none" fill="#064e94" fill-rule="evenodd"></path></g></svg>